<mxfile host="app.diagrams.net" modified="2023-05-24T21:43:14.449Z" agent="Mozilla/5.0 (Windows NT 10.0; Win64; x64) AppleWebKit/537.36 (KHTML, like Gecko) Chrome/113.0.0.0 Safari/537.36 Edg/113.0.1774.50" etag="sJH4oZXQm1vQWwrQuB5x" version="21.3.2" type="device">
  <diagram name="Page-1" id="IDW1zoYCDcWy_ZSY_7Tn">
    <mxGraphModel dx="1221" dy="671" grid="1" gridSize="10" guides="1" tooltips="1" connect="1" arrows="1" fold="1" page="1" pageScale="1" pageWidth="850" pageHeight="1100" math="0" shadow="0">
      <root>
        <mxCell id="0" />
        <mxCell id="1" parent="0" />
        <mxCell id="7HSeE0GF_UTyPeysVvRk-8" style="edgeStyle=none;rounded=0;orthogonalLoop=1;jettySize=auto;html=1;exitX=0.25;exitY=0;exitDx=0;exitDy=0;entryX=0.5;entryY=1;entryDx=0;entryDy=0;endArrow=none;endFill=0;" parent="1" source="7HSeE0GF_UTyPeysVvRk-1" target="7HSeE0GF_UTyPeysVvRk-5" edge="1">
          <mxGeometry relative="1" as="geometry" />
        </mxCell>
        <mxCell id="7HSeE0GF_UTyPeysVvRk-9" style="edgeStyle=none;rounded=0;orthogonalLoop=1;jettySize=auto;html=1;exitX=0.75;exitY=0;exitDx=0;exitDy=0;entryX=0.5;entryY=1;entryDx=0;entryDy=0;endArrow=none;endFill=0;" parent="1" source="7HSeE0GF_UTyPeysVvRk-1" target="7HSeE0GF_UTyPeysVvRk-2" edge="1">
          <mxGeometry relative="1" as="geometry" />
        </mxCell>
        <mxCell id="7HSeE0GF_UTyPeysVvRk-11" style="edgeStyle=none;rounded=0;orthogonalLoop=1;jettySize=auto;html=1;exitX=0.5;exitY=1;exitDx=0;exitDy=0;entryX=0.5;entryY=0;entryDx=0;entryDy=0;endArrow=none;endFill=0;" parent="1" source="7HSeE0GF_UTyPeysVvRk-1" target="7HSeE0GF_UTyPeysVvRk-12" edge="1">
          <mxGeometry relative="1" as="geometry">
            <mxPoint x="489.73913043478274" y="309.9999999999999" as="targetPoint" />
          </mxGeometry>
        </mxCell>
        <mxCell id="7HSeE0GF_UTyPeysVvRk-17" style="edgeStyle=none;rounded=0;orthogonalLoop=1;jettySize=auto;html=1;entryX=0;entryY=0.5;entryDx=0;entryDy=0;endArrow=none;endFill=0;exitX=1;exitY=0.75;exitDx=0;exitDy=0;" parent="1" source="7HSeE0GF_UTyPeysVvRk-1" target="7HSeE0GF_UTyPeysVvRk-16" edge="1">
          <mxGeometry relative="1" as="geometry">
            <mxPoint x="570" y="270" as="sourcePoint" />
          </mxGeometry>
        </mxCell>
        <mxCell id="7HSeE0GF_UTyPeysVvRk-32" style="edgeStyle=none;rounded=0;orthogonalLoop=1;jettySize=auto;html=1;exitX=0;exitY=0.25;exitDx=0;exitDy=0;entryX=1;entryY=1;entryDx=0;entryDy=0;endArrow=none;endFill=0;" parent="1" source="7HSeE0GF_UTyPeysVvRk-1" target="7HSeE0GF_UTyPeysVvRk-31" edge="1">
          <mxGeometry relative="1" as="geometry" />
        </mxCell>
        <mxCell id="7HSeE0GF_UTyPeysVvRk-1" value="Pessoa" style="whiteSpace=wrap;html=1;align=center;" parent="1" vertex="1">
          <mxGeometry x="440" y="190" width="120" height="40" as="geometry" />
        </mxCell>
        <mxCell id="7HSeE0GF_UTyPeysVvRk-2" value="dtaNasc" style="ellipse;whiteSpace=wrap;html=1;align=center;" parent="1" vertex="1">
          <mxGeometry x="530" y="90" width="80" height="40" as="geometry" />
        </mxCell>
        <mxCell id="7HSeE0GF_UTyPeysVvRk-3" value="apelido" style="ellipse;whiteSpace=wrap;html=1;align=center;" parent="1" vertex="1">
          <mxGeometry x="460" y="30" width="80" height="40" as="geometry" />
        </mxCell>
        <mxCell id="7HSeE0GF_UTyPeysVvRk-4" value="pnome" style="ellipse;whiteSpace=wrap;html=1;align=center;" parent="1" vertex="1">
          <mxGeometry x="340" y="30" width="80" height="40" as="geometry" />
        </mxCell>
        <mxCell id="7HSeE0GF_UTyPeysVvRk-6" style="edgeStyle=none;rounded=0;orthogonalLoop=1;jettySize=auto;html=1;exitX=0.5;exitY=0;exitDx=0;exitDy=0;entryX=1;entryY=1;entryDx=0;entryDy=0;endArrow=none;endFill=0;" parent="1" source="7HSeE0GF_UTyPeysVvRk-5" target="7HSeE0GF_UTyPeysVvRk-4" edge="1">
          <mxGeometry relative="1" as="geometry" />
        </mxCell>
        <mxCell id="7HSeE0GF_UTyPeysVvRk-7" style="edgeStyle=none;rounded=0;orthogonalLoop=1;jettySize=auto;html=1;exitX=0.5;exitY=0;exitDx=0;exitDy=0;entryX=0;entryY=1;entryDx=0;entryDy=0;endArrow=none;endFill=0;" parent="1" source="7HSeE0GF_UTyPeysVvRk-5" target="7HSeE0GF_UTyPeysVvRk-3" edge="1">
          <mxGeometry relative="1" as="geometry">
            <mxPoint x="443" y="70" as="targetPoint" />
          </mxGeometry>
        </mxCell>
        <mxCell id="7HSeE0GF_UTyPeysVvRk-5" value="nome" style="ellipse;whiteSpace=wrap;html=1;align=center;" parent="1" vertex="1">
          <mxGeometry x="400" y="110" width="85" height="40" as="geometry" />
        </mxCell>
        <mxCell id="7HSeE0GF_UTyPeysVvRk-13" style="edgeStyle=none;rounded=0;orthogonalLoop=1;jettySize=auto;html=1;exitX=0.5;exitY=1;exitDx=0;exitDy=0;entryX=0.5;entryY=0;entryDx=0;entryDy=0;endArrow=none;endFill=0;" parent="1" source="7HSeE0GF_UTyPeysVvRk-12" target="7HSeE0GF_UTyPeysVvRk-18" edge="1">
          <mxGeometry relative="1" as="geometry">
            <mxPoint x="200" y="399.9999999999999" as="targetPoint" />
          </mxGeometry>
        </mxCell>
        <mxCell id="7HSeE0GF_UTyPeysVvRk-14" style="edgeStyle=none;rounded=0;orthogonalLoop=1;jettySize=auto;html=1;exitX=0.5;exitY=1;exitDx=0;exitDy=0;entryX=0.5;entryY=0;entryDx=0;entryDy=0;endArrow=none;endFill=0;" parent="1" source="7HSeE0GF_UTyPeysVvRk-12" target="7HSeE0GF_UTyPeysVvRk-20" edge="1">
          <mxGeometry relative="1" as="geometry">
            <mxPoint x="489.73913043478274" y="389.9999999999999" as="targetPoint" />
          </mxGeometry>
        </mxCell>
        <mxCell id="7HSeE0GF_UTyPeysVvRk-15" style="edgeStyle=none;rounded=0;orthogonalLoop=1;jettySize=auto;html=1;exitX=0.5;exitY=1;exitDx=0;exitDy=0;entryX=0.5;entryY=0;entryDx=0;entryDy=0;endArrow=none;endFill=0;" parent="1" source="7HSeE0GF_UTyPeysVvRk-12" target="7HSeE0GF_UTyPeysVvRk-19" edge="1">
          <mxGeometry relative="1" as="geometry">
            <mxPoint x="550" y="400" as="targetPoint" />
          </mxGeometry>
        </mxCell>
        <mxCell id="7HSeE0GF_UTyPeysVvRk-12" value="O" style="ellipse;whiteSpace=wrap;html=1;aspect=fixed;" parent="1" vertex="1">
          <mxGeometry x="480" y="280" width="40" height="40" as="geometry" />
        </mxCell>
        <mxCell id="7HSeE0GF_UTyPeysVvRk-16" value="idade" style="ellipse;whiteSpace=wrap;html=1;align=center;dashed=1;" parent="1" vertex="1">
          <mxGeometry x="610" y="200" width="80" height="40" as="geometry" />
        </mxCell>
        <mxCell id="7HSeE0GF_UTyPeysVvRk-30" style="edgeStyle=none;rounded=0;orthogonalLoop=1;jettySize=auto;html=1;exitX=0;exitY=0.25;exitDx=0;exitDy=0;entryX=1;entryY=0.5;entryDx=0;entryDy=0;endArrow=none;endFill=0;" parent="1" source="7HSeE0GF_UTyPeysVvRk-18" target="7HSeE0GF_UTyPeysVvRk-26" edge="1">
          <mxGeometry relative="1" as="geometry" />
        </mxCell>
        <mxCell id="7HSeE0GF_UTyPeysVvRk-33" style="edgeStyle=none;rounded=0;orthogonalLoop=1;jettySize=auto;html=1;exitX=0;exitY=0.75;exitDx=0;exitDy=0;endArrow=none;endFill=0;entryX=1;entryY=0.5;entryDx=0;entryDy=0;" parent="1" source="7HSeE0GF_UTyPeysVvRk-18" target="7HSeE0GF_UTyPeysVvRk-24" edge="1">
          <mxGeometry relative="1" as="geometry" />
        </mxCell>
        <mxCell id="7HSeE0GF_UTyPeysVvRk-18" value="funcionÃ¡rio" style="whiteSpace=wrap;html=1;align=center;" parent="1" vertex="1">
          <mxGeometry x="160" y="400" width="120" height="40" as="geometry" />
        </mxCell>
        <mxCell id="7HSeE0GF_UTyPeysVvRk-45" value="" style="edgeStyle=none;rounded=0;orthogonalLoop=1;jettySize=auto;html=1;endArrow=none;endFill=0;" parent="1" source="7HSeE0GF_UTyPeysVvRk-19" target="7HSeE0GF_UTyPeysVvRk-38" edge="1">
          <mxGeometry relative="1" as="geometry" />
        </mxCell>
        <mxCell id="7HSeE0GF_UTyPeysVvRk-46" style="edgeStyle=none;rounded=0;orthogonalLoop=1;jettySize=auto;html=1;entryX=0;entryY=0.5;entryDx=0;entryDy=0;endArrow=none;endFill=0;exitX=1;exitY=0.25;exitDx=0;exitDy=0;" parent="1" source="7HSeE0GF_UTyPeysVvRk-1" target="7HSeE0GF_UTyPeysVvRk-42" edge="1">
          <mxGeometry relative="1" as="geometry">
            <mxPoint x="680" y="260" as="sourcePoint" />
          </mxGeometry>
        </mxCell>
        <mxCell id="7HSeE0GF_UTyPeysVvRk-47" style="edgeStyle=none;rounded=0;orthogonalLoop=1;jettySize=auto;html=1;exitX=1;exitY=0.75;exitDx=0;exitDy=0;entryX=0;entryY=0;entryDx=0;entryDy=0;endArrow=none;endFill=0;" parent="1" source="7HSeE0GF_UTyPeysVvRk-19" target="7HSeE0GF_UTyPeysVvRk-39" edge="1">
          <mxGeometry relative="1" as="geometry" />
        </mxCell>
        <mxCell id="7HSeE0GF_UTyPeysVvRk-19" value="visitante" style="whiteSpace=wrap;html=1;align=center;" parent="1" vertex="1">
          <mxGeometry x="720" y="400" width="120" height="40" as="geometry" />
        </mxCell>
        <mxCell id="7HSeE0GF_UTyPeysVvRk-34" style="edgeStyle=none;rounded=0;orthogonalLoop=1;jettySize=auto;html=1;exitX=0;exitY=1;exitDx=0;exitDy=0;entryX=1;entryY=0;entryDx=0;entryDy=0;endArrow=none;endFill=0;" parent="1" source="7HSeE0GF_UTyPeysVvRk-20" target="7HSeE0GF_UTyPeysVvRk-23" edge="1">
          <mxGeometry relative="1" as="geometry" />
        </mxCell>
        <mxCell id="7HSeE0GF_UTyPeysVvRk-20" value="utente" style="whiteSpace=wrap;html=1;align=center;" parent="1" vertex="1">
          <mxGeometry x="440" y="400" width="120" height="40" as="geometry" />
        </mxCell>
        <mxCell id="7HSeE0GF_UTyPeysVvRk-23" value="dtaEntrada" style="ellipse;whiteSpace=wrap;html=1;align=center;" parent="1" vertex="1">
          <mxGeometry x="350" y="450" width="80" height="40" as="geometry" />
        </mxCell>
        <mxCell id="7HSeE0GF_UTyPeysVvRk-24" value="dtaContrato" style="ellipse;whiteSpace=wrap;html=1;align=center;" parent="1" vertex="1">
          <mxGeometry x="80" y="430" width="70" height="40" as="geometry" />
        </mxCell>
        <mxCell id="7HSeE0GF_UTyPeysVvRk-26" value="salario" style="ellipse;whiteSpace=wrap;html=1;align=center;" parent="1" vertex="1">
          <mxGeometry x="80" y="370" width="70" height="40" as="geometry" />
        </mxCell>
        <mxCell id="7HSeE0GF_UTyPeysVvRk-31" value="genero" style="ellipse;whiteSpace=wrap;html=1;align=center;" parent="1" vertex="1">
          <mxGeometry x="310" y="140" width="85" height="40" as="geometry" />
        </mxCell>
        <mxCell id="7HSeE0GF_UTyPeysVvRk-38" value="parentesco" style="ellipse;whiteSpace=wrap;html=1;align=center;" parent="1" vertex="1">
          <mxGeometry x="851.25" y="400" width="80" height="40" as="geometry" />
        </mxCell>
        <mxCell id="7HSeE0GF_UTyPeysVvRk-39" value="contacto" style="ellipse;shape=doubleEllipse;margin=3;whiteSpace=wrap;html=1;align=center;" parent="1" vertex="1">
          <mxGeometry x="848.75" y="460" width="80" height="40" as="geometry" />
        </mxCell>
        <mxCell id="7HSeE0GF_UTyPeysVvRk-42" value="id" style="ellipse;whiteSpace=wrap;html=1;align=center;fontStyle=4;" parent="1" vertex="1">
          <mxGeometry x="610" y="130" width="80" height="40" as="geometry" />
        </mxCell>
        <mxCell id="7HSeE0GF_UTyPeysVvRk-52" style="edgeStyle=none;rounded=0;orthogonalLoop=1;jettySize=auto;html=1;exitX=0;exitY=0.5;exitDx=0;exitDy=0;entryX=1;entryY=0.5;entryDx=0;entryDy=0;endArrow=none;endFill=0;" parent="1" source="7HSeE0GF_UTyPeysVvRk-48" target="7HSeE0GF_UTyPeysVvRk-49" edge="1">
          <mxGeometry relative="1" as="geometry" />
        </mxCell>
        <mxCell id="7HSeE0GF_UTyPeysVvRk-53" style="edgeStyle=none;rounded=0;orthogonalLoop=1;jettySize=auto;html=1;exitX=0;exitY=0.75;exitDx=0;exitDy=0;entryX=1;entryY=0.5;entryDx=0;entryDy=0;endArrow=none;endFill=0;" parent="1" source="7HSeE0GF_UTyPeysVvRk-48" target="7HSeE0GF_UTyPeysVvRk-51" edge="1">
          <mxGeometry relative="1" as="geometry" />
        </mxCell>
        <mxCell id="7HSeE0GF_UTyPeysVvRk-48" value="categoria" style="whiteSpace=wrap;html=1;align=center;" parent="1" vertex="1">
          <mxGeometry x="160" y="640" width="120" height="40" as="geometry" />
        </mxCell>
        <mxCell id="7HSeE0GF_UTyPeysVvRk-49" value="&lt;span style=&quot;border-bottom: 1px dotted&quot;&gt;id&lt;/span&gt;" style="ellipse;whiteSpace=wrap;html=1;align=center;" parent="1" vertex="1">
          <mxGeometry x="60" y="610" width="80" height="40" as="geometry" />
        </mxCell>
        <mxCell id="7HSeE0GF_UTyPeysVvRk-51" value="funcao" style="ellipse;whiteSpace=wrap;html=1;align=center;" parent="1" vertex="1">
          <mxGeometry x="60" y="670" width="80" height="40" as="geometry" />
        </mxCell>
        <mxCell id="7HSeE0GF_UTyPeysVvRk-65" style="edgeStyle=none;rounded=0;orthogonalLoop=1;jettySize=auto;html=1;entryX=0;entryY=0.5;entryDx=0;entryDy=0;endArrow=none;endFill=0;exitX=1;exitY=0.75;exitDx=0;exitDy=0;" parent="1" source="7HSeE0GF_UTyPeysVvRk-56" target="7HSeE0GF_UTyPeysVvRk-58" edge="1">
          <mxGeometry relative="1" as="geometry">
            <mxPoint x="860" y="850" as="sourcePoint" />
          </mxGeometry>
        </mxCell>
        <mxCell id="7HSeE0GF_UTyPeysVvRk-66" style="edgeStyle=none;rounded=0;orthogonalLoop=1;jettySize=auto;html=1;exitX=1;exitY=0.25;exitDx=0;exitDy=0;entryX=0;entryY=0.5;entryDx=0;entryDy=0;endArrow=none;endFill=0;" parent="1" source="7HSeE0GF_UTyPeysVvRk-56" target="7HSeE0GF_UTyPeysVvRk-57" edge="1">
          <mxGeometry relative="1" as="geometry">
            <mxPoint x="969.2157287525379" y="740.0021356237311" as="targetPoint" />
          </mxGeometry>
        </mxCell>
        <mxCell id="7HSeE0GF_UTyPeysVvRk-56" value="visita" style="whiteSpace=wrap;html=1;align=center;" parent="1" vertex="1">
          <mxGeometry x="720" y="760" width="120" height="40" as="geometry" />
        </mxCell>
        <mxCell id="7HSeE0GF_UTyPeysVvRk-57" value="&lt;span style=&quot;border-bottom: 1px dotted&quot;&gt;id&lt;/span&gt;" style="ellipse;whiteSpace=wrap;html=1;align=center;" parent="1" vertex="1">
          <mxGeometry x="848.75" y="730" width="80" height="40" as="geometry" />
        </mxCell>
        <mxCell id="7HSeE0GF_UTyPeysVvRk-58" value="dtaVisita" style="ellipse;whiteSpace=wrap;html=1;align=center;" parent="1" vertex="1">
          <mxGeometry x="850" y="790" width="80" height="40" as="geometry" />
        </mxCell>
        <mxCell id="7HSeE0GF_UTyPeysVvRk-79" style="edgeStyle=none;rounded=0;orthogonalLoop=1;jettySize=auto;html=1;exitX=1;exitY=0;exitDx=0;exitDy=0;entryX=0;entryY=0.5;entryDx=0;entryDy=0;endArrow=none;endFill=0;" parent="1" source="7HSeE0GF_UTyPeysVvRk-70" target="7HSeE0GF_UTyPeysVvRk-73" edge="1">
          <mxGeometry relative="1" as="geometry" />
        </mxCell>
        <mxCell id="7HSeE0GF_UTyPeysVvRk-80" style="edgeStyle=none;rounded=0;orthogonalLoop=1;jettySize=auto;html=1;exitX=1;exitY=0.5;exitDx=0;exitDy=0;entryX=0;entryY=0.5;entryDx=0;entryDy=0;endArrow=none;endFill=0;" parent="1" source="7HSeE0GF_UTyPeysVvRk-70" target="7HSeE0GF_UTyPeysVvRk-74" edge="1">
          <mxGeometry relative="1" as="geometry" />
        </mxCell>
        <mxCell id="7HSeE0GF_UTyPeysVvRk-81" style="edgeStyle=none;rounded=0;orthogonalLoop=1;jettySize=auto;html=1;exitX=1;exitY=1;exitDx=0;exitDy=0;entryX=0;entryY=0.5;entryDx=0;entryDy=0;endArrow=none;endFill=0;" parent="1" source="7HSeE0GF_UTyPeysVvRk-70" target="7HSeE0GF_UTyPeysVvRk-75" edge="1">
          <mxGeometry relative="1" as="geometry" />
        </mxCell>
        <mxCell id="7HSeE0GF_UTyPeysVvRk-70" value="tipoVisita" style="whiteSpace=wrap;html=1;align=center;" parent="1" vertex="1">
          <mxGeometry x="720" y="1040" width="120" height="40" as="geometry" />
        </mxCell>
        <mxCell id="7HSeE0GF_UTyPeysVvRk-73" value="id" style="ellipse;whiteSpace=wrap;html=1;align=center;fontStyle=4;" parent="1" vertex="1">
          <mxGeometry x="851.25" y="980" width="80" height="40" as="geometry" />
        </mxCell>
        <mxCell id="7HSeE0GF_UTyPeysVvRk-74" value="tipo" style="ellipse;whiteSpace=wrap;html=1;align=center;" parent="1" vertex="1">
          <mxGeometry x="851.25" y="1040" width="80" height="40" as="geometry" />
        </mxCell>
        <mxCell id="7HSeE0GF_UTyPeysVvRk-75" value="descricao" style="ellipse;whiteSpace=wrap;html=1;align=center;" parent="1" vertex="1">
          <mxGeometry x="851.25" y="1100" width="80" height="40" as="geometry" />
        </mxCell>
        <mxCell id="7HSeE0GF_UTyPeysVvRk-86" value="porta" style="ellipse;whiteSpace=wrap;html=1;align=center;" parent="1" vertex="1">
          <mxGeometry x="400" y="1010" width="70" height="40" as="geometry" />
        </mxCell>
        <mxCell id="7HSeE0GF_UTyPeysVvRk-87" value="andar" style="ellipse;whiteSpace=wrap;html=1;align=center;" parent="1" vertex="1">
          <mxGeometry x="495" y="1010" width="70" height="40" as="geometry" />
        </mxCell>
        <mxCell id="7HSeE0GF_UTyPeysVvRk-88" value="edificio" style="ellipse;whiteSpace=wrap;html=1;align=center;" parent="1" vertex="1">
          <mxGeometry x="590" y="1010" width="70" height="40" as="geometry" />
        </mxCell>
        <mxCell id="7HSeE0GF_UTyPeysVvRk-97" style="edgeStyle=none;rounded=0;orthogonalLoop=1;jettySize=auto;html=1;exitX=0.25;exitY=1;exitDx=0;exitDy=0;entryX=0.5;entryY=0;entryDx=0;entryDy=0;endArrow=none;endFill=0;" parent="1" source="7HSeE0GF_UTyPeysVvRk-90" target="7HSeE0GF_UTyPeysVvRk-92" edge="1">
          <mxGeometry relative="1" as="geometry" />
        </mxCell>
        <mxCell id="7HSeE0GF_UTyPeysVvRk-98" style="edgeStyle=none;rounded=0;orthogonalLoop=1;jettySize=auto;html=1;exitX=0.75;exitY=1;exitDx=0;exitDy=0;entryX=0.5;entryY=0;entryDx=0;entryDy=0;endArrow=none;endFill=0;" parent="1" source="7HSeE0GF_UTyPeysVvRk-90" target="7HSeE0GF_UTyPeysVvRk-91" edge="1">
          <mxGeometry relative="1" as="geometry">
            <mxPoint x="370" y="949.9999999999998" as="sourcePoint" />
          </mxGeometry>
        </mxCell>
        <mxCell id="7HSeE0GF_UTyPeysVvRk-90" value="sala" style="whiteSpace=wrap;html=1;align=center;" parent="1" vertex="1">
          <mxGeometry x="430" y="880" width="120" height="40" as="geometry" />
        </mxCell>
        <mxCell id="7HSeE0GF_UTyPeysVvRk-94" style="edgeStyle=none;rounded=0;orthogonalLoop=1;jettySize=auto;html=1;exitX=0;exitY=1;exitDx=0;exitDy=0;entryX=1;entryY=0;entryDx=0;entryDy=0;endArrow=none;endFill=0;" parent="1" source="7HSeE0GF_UTyPeysVvRk-91" target="7HSeE0GF_UTyPeysVvRk-86" edge="1">
          <mxGeometry relative="1" as="geometry" />
        </mxCell>
        <mxCell id="7HSeE0GF_UTyPeysVvRk-95" style="edgeStyle=none;rounded=0;orthogonalLoop=1;jettySize=auto;html=1;exitX=0.5;exitY=1;exitDx=0;exitDy=0;entryX=0.5;entryY=0;entryDx=0;entryDy=0;endArrow=none;endFill=0;" parent="1" source="7HSeE0GF_UTyPeysVvRk-91" target="7HSeE0GF_UTyPeysVvRk-87" edge="1">
          <mxGeometry relative="1" as="geometry" />
        </mxCell>
        <mxCell id="7HSeE0GF_UTyPeysVvRk-96" style="edgeStyle=none;rounded=0;orthogonalLoop=1;jettySize=auto;html=1;exitX=1;exitY=1;exitDx=0;exitDy=0;entryX=0;entryY=0;entryDx=0;entryDy=0;endArrow=none;endFill=0;" parent="1" source="7HSeE0GF_UTyPeysVvRk-91" target="7HSeE0GF_UTyPeysVvRk-88" edge="1">
          <mxGeometry relative="1" as="geometry" />
        </mxCell>
        <mxCell id="7HSeE0GF_UTyPeysVvRk-91" value="localizacao" style="ellipse;whiteSpace=wrap;html=1;align=center;" parent="1" vertex="1">
          <mxGeometry x="495" y="950" width="70" height="40" as="geometry" />
        </mxCell>
        <mxCell id="7HSeE0GF_UTyPeysVvRk-92" value="id" style="ellipse;whiteSpace=wrap;html=1;align=center;fontStyle=4;" parent="1" vertex="1">
          <mxGeometry x="382.5" y="950" width="80" height="40" as="geometry" />
        </mxCell>
        <mxCell id="7HSeE0GF_UTyPeysVvRk-93" style="edgeStyle=none;rounded=0;orthogonalLoop=1;jettySize=auto;html=1;exitX=0;exitY=0;exitDx=0;exitDy=0;" parent="1" source="7HSeE0GF_UTyPeysVvRk-92" target="7HSeE0GF_UTyPeysVvRk-92" edge="1">
          <mxGeometry relative="1" as="geometry" />
        </mxCell>
        <mxCell id="7HSeE0GF_UTyPeysVvRk-103" style="edgeStyle=none;rounded=0;orthogonalLoop=1;jettySize=auto;html=1;exitX=0.25;exitY=1;exitDx=0;exitDy=0;entryX=0.5;entryY=0;entryDx=0;entryDy=0;endArrow=none;endFill=0;" parent="1" source="7HSeE0GF_UTyPeysVvRk-99" target="7HSeE0GF_UTyPeysVvRk-100" edge="1">
          <mxGeometry relative="1" as="geometry" />
        </mxCell>
        <mxCell id="7HSeE0GF_UTyPeysVvRk-104" style="edgeStyle=none;rounded=0;orthogonalLoop=1;jettySize=auto;html=1;exitX=0.5;exitY=1;exitDx=0;exitDy=0;entryX=0.5;entryY=0;entryDx=0;entryDy=0;endArrow=none;endFill=0;" parent="1" source="7HSeE0GF_UTyPeysVvRk-99" target="7HSeE0GF_UTyPeysVvRk-102" edge="1">
          <mxGeometry relative="1" as="geometry" />
        </mxCell>
        <mxCell id="7HSeE0GF_UTyPeysVvRk-105" style="edgeStyle=none;rounded=0;orthogonalLoop=1;jettySize=auto;html=1;exitX=0.75;exitY=1;exitDx=0;exitDy=0;entryX=0.5;entryY=0;entryDx=0;entryDy=0;endArrow=none;endFill=0;" parent="1" source="7HSeE0GF_UTyPeysVvRk-99" target="7HSeE0GF_UTyPeysVvRk-101" edge="1">
          <mxGeometry relative="1" as="geometry" />
        </mxCell>
        <mxCell id="7HSeE0GF_UTyPeysVvRk-99" value="acolhimento" style="whiteSpace=wrap;html=1;align=center;" parent="1" vertex="1">
          <mxGeometry x="440" y="640" width="120" height="40" as="geometry" />
        </mxCell>
        <mxCell id="7HSeE0GF_UTyPeysVvRk-100" value="id" style="ellipse;whiteSpace=wrap;html=1;align=center;fontStyle=4;" parent="1" vertex="1">
          <mxGeometry x="395" y="710" width="80" height="40" as="geometry" />
        </mxCell>
        <mxCell id="7HSeE0GF_UTyPeysVvRk-101" value="delegacao" style="ellipse;whiteSpace=wrap;html=1;align=center;" parent="1" vertex="1">
          <mxGeometry x="525" y="710" width="90" height="40" as="geometry" />
        </mxCell>
        <mxCell id="7HSeE0GF_UTyPeysVvRk-102" value="descricao" style="ellipse;whiteSpace=wrap;html=1;align=center;" parent="1" vertex="1">
          <mxGeometry x="457.5" y="760" width="85" height="40" as="geometry" />
        </mxCell>
        <mxCell id="jxQwrlqiX_QG084GHGnS-50" style="edgeStyle=none;rounded=0;orthogonalLoop=1;jettySize=auto;html=1;exitX=1;exitY=0;exitDx=0;exitDy=0;entryX=0;entryY=0.5;entryDx=0;entryDy=0;endArrow=none;endFill=0;" parent="1" source="jxQwrlqiX_QG084GHGnS-1" target="jxQwrlqiX_QG084GHGnS-51" edge="1">
          <mxGeometry relative="1" as="geometry">
            <mxPoint x="1040" y="579.9999999999998" as="targetPoint" />
          </mxGeometry>
        </mxCell>
        <mxCell id="jxQwrlqiX_QG084GHGnS-53" style="edgeStyle=none;rounded=0;orthogonalLoop=1;jettySize=auto;html=1;exitX=1;exitY=1;exitDx=0;exitDy=0;entryX=0;entryY=0.5;entryDx=0;entryDy=0;endArrow=none;endFill=0;" parent="1" source="jxQwrlqiX_QG084GHGnS-1" target="jxQwrlqiX_QG084GHGnS-52" edge="1">
          <mxGeometry relative="1" as="geometry" />
        </mxCell>
        <mxCell id="jxQwrlqiX_QG084GHGnS-1" value="Visitar" style="shape=rhombus;perimeter=rhombusPerimeter;whiteSpace=wrap;html=1;align=center;" parent="1" vertex="1">
          <mxGeometry x="740" y="560" width="80" height="60" as="geometry" />
        </mxCell>
        <mxCell id="jxQwrlqiX_QG084GHGnS-4" value="Ter" style="shape=rhombus;perimeter=rhombusPerimeter;whiteSpace=wrap;html=1;align=center;" parent="1" vertex="1">
          <mxGeometry x="740" y="880" width="80" height="60" as="geometry" />
        </mxCell>
        <mxCell id="jxQwrlqiX_QG084GHGnS-5" value="Localizar" style="shape=rhombus;perimeter=rhombusPerimeter;whiteSpace=wrap;html=1;align=center;" parent="1" vertex="1">
          <mxGeometry x="590" y="800" width="80" height="60" as="geometry" />
        </mxCell>
        <mxCell id="jxQwrlqiX_QG084GHGnS-6" value="Exercer" style="shape=rhombus;perimeter=rhombusPerimeter;whiteSpace=wrap;html=1;align=center;" parent="1" vertex="1">
          <mxGeometry x="180" y="510" width="80" height="60" as="geometry" />
        </mxCell>
        <mxCell id="jxQwrlqiX_QG084GHGnS-7" value="" style="shape=link;html=1;rounded=0;entryX=0.5;entryY=1;entryDx=0;entryDy=0;exitX=0.5;exitY=0;exitDx=0;exitDy=0;" parent="1" source="jxQwrlqiX_QG084GHGnS-6" target="7HSeE0GF_UTyPeysVvRk-18" edge="1">
          <mxGeometry relative="1" as="geometry">
            <mxPoint x="70" y="500" as="sourcePoint" />
            <mxPoint x="230" y="500" as="targetPoint" />
          </mxGeometry>
        </mxCell>
        <mxCell id="jxQwrlqiX_QG084GHGnS-8" value="N" style="resizable=0;html=1;whiteSpace=wrap;align=right;verticalAlign=bottom;" parent="jxQwrlqiX_QG084GHGnS-7" connectable="0" vertex="1">
          <mxGeometry x="1" relative="1" as="geometry" />
        </mxCell>
        <mxCell id="jxQwrlqiX_QG084GHGnS-9" value="" style="endArrow=none;html=1;rounded=0;entryX=0.5;entryY=0;entryDx=0;entryDy=0;exitX=0.5;exitY=1;exitDx=0;exitDy=0;" parent="1" source="jxQwrlqiX_QG084GHGnS-6" target="7HSeE0GF_UTyPeysVvRk-48" edge="1">
          <mxGeometry relative="1" as="geometry">
            <mxPoint x="80" y="600" as="sourcePoint" />
            <mxPoint x="240" y="600" as="targetPoint" />
          </mxGeometry>
        </mxCell>
        <mxCell id="jxQwrlqiX_QG084GHGnS-10" value="1" style="resizable=0;html=1;whiteSpace=wrap;align=right;verticalAlign=bottom;" parent="jxQwrlqiX_QG084GHGnS-9" connectable="0" vertex="1">
          <mxGeometry x="1" relative="1" as="geometry" />
        </mxCell>
        <mxCell id="jxQwrlqiX_QG084GHGnS-14" value="" style="shape=link;html=1;rounded=0;entryX=0.5;entryY=0;entryDx=0;entryDy=0;exitX=0.5;exitY=1;exitDx=0;exitDy=0;" parent="1" source="jxQwrlqiX_QG084GHGnS-1" target="7HSeE0GF_UTyPeysVvRk-56" edge="1">
          <mxGeometry relative="1" as="geometry">
            <mxPoint x="880" y="700" as="sourcePoint" />
            <mxPoint x="810" y="760" as="targetPoint" />
          </mxGeometry>
        </mxCell>
        <mxCell id="jxQwrlqiX_QG084GHGnS-15" value="N" style="resizable=0;html=1;whiteSpace=wrap;align=right;verticalAlign=bottom;" parent="jxQwrlqiX_QG084GHGnS-14" connectable="0" vertex="1">
          <mxGeometry x="1" relative="1" as="geometry" />
        </mxCell>
        <mxCell id="jxQwrlqiX_QG084GHGnS-16" value="" style="shape=link;html=1;rounded=0;entryX=0.5;entryY=1;entryDx=0;entryDy=0;" parent="1" source="jxQwrlqiX_QG084GHGnS-4" target="7HSeE0GF_UTyPeysVvRk-56" edge="1">
          <mxGeometry relative="1" as="geometry">
            <mxPoint x="880" y="895.86" as="sourcePoint" />
            <mxPoint x="890" y="865.86" as="targetPoint" />
          </mxGeometry>
        </mxCell>
        <mxCell id="jxQwrlqiX_QG084GHGnS-17" value="N" style="resizable=0;html=1;whiteSpace=wrap;align=right;verticalAlign=bottom;" parent="jxQwrlqiX_QG084GHGnS-16" connectable="0" vertex="1">
          <mxGeometry x="1" relative="1" as="geometry" />
        </mxCell>
        <mxCell id="jxQwrlqiX_QG084GHGnS-18" value="" style="endArrow=none;html=1;rounded=0;entryX=0.5;entryY=0;entryDx=0;entryDy=0;exitX=0.5;exitY=1;exitDx=0;exitDy=0;" parent="1" source="jxQwrlqiX_QG084GHGnS-4" target="7HSeE0GF_UTyPeysVvRk-70" edge="1">
          <mxGeometry relative="1" as="geometry">
            <mxPoint x="340" y="990" as="sourcePoint" />
            <mxPoint x="500" y="989" as="targetPoint" />
          </mxGeometry>
        </mxCell>
        <mxCell id="jxQwrlqiX_QG084GHGnS-19" value="1" style="resizable=0;html=1;whiteSpace=wrap;align=right;verticalAlign=bottom;" parent="jxQwrlqiX_QG084GHGnS-18" connectable="0" vertex="1">
          <mxGeometry x="1" relative="1" as="geometry" />
        </mxCell>
        <mxCell id="jxQwrlqiX_QG084GHGnS-20" value="" style="shape=link;html=1;rounded=0;entryX=0;entryY=1;entryDx=0;entryDy=0;exitX=1;exitY=0;exitDx=0;exitDy=0;" parent="1" source="jxQwrlqiX_QG084GHGnS-5" target="7HSeE0GF_UTyPeysVvRk-56" edge="1">
          <mxGeometry relative="1" as="geometry">
            <mxPoint x="575" y="720" as="sourcePoint" />
            <mxPoint x="735" y="720" as="targetPoint" />
          </mxGeometry>
        </mxCell>
        <mxCell id="jxQwrlqiX_QG084GHGnS-21" value="N" style="resizable=0;html=1;whiteSpace=wrap;align=right;verticalAlign=bottom;" parent="jxQwrlqiX_QG084GHGnS-20" connectable="0" vertex="1">
          <mxGeometry x="1" relative="1" as="geometry" />
        </mxCell>
        <mxCell id="jxQwrlqiX_QG084GHGnS-22" value="" style="endArrow=none;html=1;rounded=0;entryX=1;entryY=0;entryDx=0;entryDy=0;exitX=0;exitY=1;exitDx=0;exitDy=0;" parent="1" source="jxQwrlqiX_QG084GHGnS-5" target="7HSeE0GF_UTyPeysVvRk-90" edge="1">
          <mxGeometry relative="1" as="geometry">
            <mxPoint x="542.5" y="800" as="sourcePoint" />
            <mxPoint x="702.5" y="800" as="targetPoint" />
          </mxGeometry>
        </mxCell>
        <mxCell id="jxQwrlqiX_QG084GHGnS-23" value="1" style="resizable=0;html=1;whiteSpace=wrap;align=right;verticalAlign=bottom;" parent="jxQwrlqiX_QG084GHGnS-22" connectable="0" vertex="1">
          <mxGeometry x="1" relative="1" as="geometry" />
        </mxCell>
        <mxCell id="jxQwrlqiX_QG084GHGnS-41" value="Acolher" style="shape=rhombus;perimeter=rhombusPerimeter;whiteSpace=wrap;html=1;align=center;" parent="1" vertex="1">
          <mxGeometry x="460" y="510" width="80" height="60" as="geometry" />
        </mxCell>
        <mxCell id="jxQwrlqiX_QG084GHGnS-42" value="" style="shape=link;html=1;rounded=0;exitX=0.5;exitY=0;exitDx=0;exitDy=0;entryX=0.5;entryY=1;entryDx=0;entryDy=0;" parent="1" source="jxQwrlqiX_QG084GHGnS-41" target="7HSeE0GF_UTyPeysVvRk-20" edge="1">
          <mxGeometry relative="1" as="geometry">
            <mxPoint x="350" y="490" as="sourcePoint" />
            <mxPoint x="480" y="450" as="targetPoint" />
          </mxGeometry>
        </mxCell>
        <mxCell id="jxQwrlqiX_QG084GHGnS-43" value="N" style="resizable=0;html=1;whiteSpace=wrap;align=right;verticalAlign=bottom;" parent="jxQwrlqiX_QG084GHGnS-42" connectable="0" vertex="1">
          <mxGeometry x="1" relative="1" as="geometry" />
        </mxCell>
        <mxCell id="jxQwrlqiX_QG084GHGnS-44" value="" style="endArrow=none;html=1;rounded=0;entryX=0.5;entryY=0;entryDx=0;entryDy=0;exitX=0.5;exitY=1;exitDx=0;exitDy=0;" parent="1" source="jxQwrlqiX_QG084GHGnS-41" target="7HSeE0GF_UTyPeysVvRk-99" edge="1">
          <mxGeometry relative="1" as="geometry">
            <mxPoint x="360" y="460" as="sourcePoint" />
            <mxPoint x="520" y="460" as="targetPoint" />
          </mxGeometry>
        </mxCell>
        <mxCell id="jxQwrlqiX_QG084GHGnS-45" value="1" style="resizable=0;html=1;whiteSpace=wrap;align=right;verticalAlign=bottom;" parent="jxQwrlqiX_QG084GHGnS-44" connectable="0" vertex="1">
          <mxGeometry x="1" relative="1" as="geometry" />
        </mxCell>
        <mxCell id="jxQwrlqiX_QG084GHGnS-48" value="" style="shape=link;html=1;rounded=0;exitX=0.5;exitY=0;exitDx=0;exitDy=0;" parent="1" source="jxQwrlqiX_QG084GHGnS-1" target="7HSeE0GF_UTyPeysVvRk-19" edge="1">
          <mxGeometry relative="1" as="geometry">
            <mxPoint x="720" y="480" as="sourcePoint" />
            <mxPoint x="880" y="480" as="targetPoint" />
          </mxGeometry>
        </mxCell>
        <mxCell id="jxQwrlqiX_QG084GHGnS-49" value="N" style="resizable=0;html=1;whiteSpace=wrap;align=right;verticalAlign=bottom;" parent="jxQwrlqiX_QG084GHGnS-48" connectable="0" vertex="1">
          <mxGeometry x="1" relative="1" as="geometry" />
        </mxCell>
        <mxCell id="jxQwrlqiX_QG084GHGnS-51" value="idVisitante" style="ellipse;whiteSpace=wrap;html=1;align=center;fontStyle=0;" parent="1" vertex="1">
          <mxGeometry x="850" y="540" width="80" height="40" as="geometry" />
        </mxCell>
        <mxCell id="jxQwrlqiX_QG084GHGnS-52" value="idVisita" style="ellipse;whiteSpace=wrap;html=1;align=center;fontStyle=0;" parent="1" vertex="1">
          <mxGeometry x="850" y="600" width="80" height="40" as="geometry" />
        </mxCell>
        <mxCell id="xq6jjb1yhjWtmlKw6WjB-1" value="Receber" style="shape=rhombus;perimeter=rhombusPerimeter;whiteSpace=wrap;html=1;align=center;" parent="1" vertex="1">
          <mxGeometry x="600" y="560" width="80" height="60" as="geometry" />
        </mxCell>
        <mxCell id="xq6jjb1yhjWtmlKw6WjB-4" value="" style="endArrow=none;html=1;rounded=0;entryX=1;entryY=1;entryDx=0;entryDy=0;exitX=0;exitY=0;exitDx=0;exitDy=0;" parent="1" source="xq6jjb1yhjWtmlKw6WjB-1" target="7HSeE0GF_UTyPeysVvRk-20" edge="1">
          <mxGeometry relative="1" as="geometry">
            <mxPoint x="520" y="500" as="sourcePoint" />
            <mxPoint x="680" y="500" as="targetPoint" />
          </mxGeometry>
        </mxCell>
        <mxCell id="xq6jjb1yhjWtmlKw6WjB-5" value="1" style="resizable=0;html=1;whiteSpace=wrap;align=right;verticalAlign=bottom;" parent="xq6jjb1yhjWtmlKw6WjB-4" connectable="0" vertex="1">
          <mxGeometry x="1" relative="1" as="geometry" />
        </mxCell>
        <mxCell id="xq6jjb1yhjWtmlKw6WjB-6" value="" style="shape=link;html=1;rounded=0;entryX=0;entryY=0;entryDx=0;entryDy=0;" parent="1" source="xq6jjb1yhjWtmlKw6WjB-1" target="7HSeE0GF_UTyPeysVvRk-56" edge="1">
          <mxGeometry relative="1" as="geometry">
            <mxPoint x="640" y="750" as="sourcePoint" />
            <mxPoint x="790" y="760" as="targetPoint" />
          </mxGeometry>
        </mxCell>
        <mxCell id="xq6jjb1yhjWtmlKw6WjB-7" value="N" style="resizable=0;html=1;whiteSpace=wrap;align=right;verticalAlign=bottom;" parent="xq6jjb1yhjWtmlKw6WjB-6" connectable="0" vertex="1">
          <mxGeometry x="1" relative="1" as="geometry" />
        </mxCell>
      </root>
    </mxGraphModel>
  </diagram>
</mxfile>
